<?xml version="1.0" encoding="UTF-8"?><!DOCTYPE svg PUBLIC "-//W3C//DTD SVG 1.1//EN" "http://www.w3.org/Graphics/SVG/1.1/DTD/svg11.dtd"><svg xmlns="http://www.w3.org/2000/svg" xmlns:xlink="http://www.w3.org/1999/xlink"><defs><style>.cls-1{fill:#454553}</style><style>.cls-1{fill:#3e3e40;fill-rule:evenodd}</style></defs><symbol id="arr" viewBox="0 0 711 601.07"><path d="M711 300.51v.16a48.56 48.56 0 0 1-3.82 18.92 49.94 49.94 0 0 1-11 16.35L442.2 586.37a51.19 51.19 0 0 1-71.8 0 49.52 49.52 0 0 1 0-70.81l167.23-164.94H50.81C22.75 350.62 0 328.19 0 300.51s22.75-50.08 50.81-50.08h486.82L370.4 85.49a49.52 49.52 0 0 1 0-70.81 51.25 51.25 0 0 1 71.8 0l253.95 250.45a49.85 49.85 0 0 1 11 16.31 48.94 48.94 0 0 1 3.85 18.95z" fill="#3e3e40"/></symbol><symbol id="arrow" viewBox="0 0 351.26 600.26"><path d="M245.88 300.19L14.72 85.38a50.08 50.08 0 0 1 70.94-70.71l250.91 250.11a49.28 49.28 0 0 1 10.92 16.31 48.76 48.76 0 0 1 3.77 18.91v.26a48.76 48.76 0 0 1-3.77 18.91 49.44 49.44 0 0 1-10.92 16.31L85.65 585.61a50.09 50.09 0 1 1-70.94-70.73l231.17-214.69" fill="#3e3e40"/></symbol><symbol id="cart" viewBox="0 0 525 600"><path d="M450 150h-37.5C412.5 64.5 348 0 262.49 0s-150 64.5-150 150H75a75 75 0 0 0-75 75v300a75 75 0 0 0 75 75h375a75 75 0 0 0 75-75V225a75 75 0 0 0-75-75zM262.49 75c44.18 0 75 30.86 75 75h-150c0-44.14 30.84-75 75-75zM450 525H75V225h37.5v75a37.5 37.5 0 1 0 75 0v-75h150v75a37.5 37.5 0 1 0 75 0v-75H450z" fill="#41414e"/></symbol><symbol id="facebook-icon" viewBox="0 0 300.12 600"><path d="M199.55 600H66.49V316.67H.03V207.5h66.49V142C66.49 53 104.03 0 210.68 0h88.82v109.19h-55.52c-41.48 0-44.24 15.26-44.24 43.71l-.18 54.59h100.56l-11.78 109.18h-88.79z" fill="#a9abb0" fill-rule="evenodd"/></symbol><symbol id="instagram-icon" viewBox="0 0 600.33 600.35"><path d="M460.42 103.92a36 36 0 1 0 36 36 36 36 0 0 0-36-36m138.11 72.51c-1.46-32-6.55-53.76-13.94-72.84a147.18 147.18 0 0 0-34.63-53.18 147.22 147.22 0 0 0-53.19-34.63c-19.05-7.43-40.88-12.43-72.85-13.94S381.68 0 300.19 0s-91.74.35-123.75 1.84-53.78 6.51-72.91 13.94a147.27 147.27 0 0 0-53.18 34.63 147.42 147.42 0 0 0-34.62 53.18c-7.4 19.07-12.48 40.88-13.94 72.84S-.04 218.66-.04 300.18s.39 91.75 1.83 123.77 6.55 53.77 13.94 72.85a153.56 153.56 0 0 0 87.8 87.8c19.08 7.43 40.92 12.49 72.86 13.95s42.23 1.8 123.75 1.8 91.72-.35 123.73-1.8 53.8-6.51 72.86-13.95a153.65 153.65 0 0 0 87.82-87.81c7.4-19.07 12.48-40.91 13.94-72.85s1.79-42.23 1.79-123.77-.35-91.74-1.79-123.75m-54 245c-1.34 29.25-6.22 45.15-10.35 55.75a99.22 99.22 0 0 1-57 56.92c-10.57 4.13-26.48 9-55.73 10.37-31.67 1.44-41.16 1.74-121.29 1.74s-89.63-.29-121.31-1.74c-29.25-1.35-45.14-6.24-55.71-10.37a99.25 99.25 0 0 1-57-56.92c-4.15-10.6-9-26.5-10.36-55.75-1.44-31.65-1.73-41.16-1.73-121.3s.29-89.63 1.73-121.27c1.36-29.26 6.22-45.18 10.36-55.77a92.81 92.81 0 0 1 22.56-34.43 93.08 93.08 0 0 1 34.51-22.46c10.57-4.09 26.46-9 55.71-10.34 31.69-1.45 41.16-1.77 121.31-1.77s89.63.32 121.29 1.77c29.25 1.33 45.16 6.25 55.73 10.34a93.09 93.09 0 0 1 34.51 22.46 93.12 93.12 0 0 1 22.46 34.49c4.13 10.59 9 26.51 10.35 55.77 1.44 31.64 1.73 41.13 1.73 121.27s-.28 89.65-1.73 121.3M300.19 146.06a154.14 154.14 0 1 0 154.14 154.12 154.15 154.15 0 0 0-154.14-154.12m0 254.18a100.06 100.06 0 1 1 100.05-100.06 100.08 100.08 0 0 1-100.05 100.07" fill="#a9abb0" fill-rule="evenodd"/></symbol><symbol id="kiwi" viewBox="0 65.326 612 502.174"><ellipse fill="#C6C6C6" cx="283.5" cy="487.5" rx="259" ry="80"/><path d="M210.333 65.331c-105.966.774-222.682 85.306-209.277 211.118 4.303 40.393 18.533 63.704 52.171 79.03 36.307 16.544 57.022 54.556 50.406 112.954-9.935 4.88-17.405 11.031-19.132 20.015 7.531-.17 14.943-.312 22.59 4.341 20.333 12.375 31.296 27.363 42.979 51.72 1.714 3.572 8.192 2.849 8.312-3.078.17-8.467-1.856-17.454-5.226-26.933-2.955-8.313 3.059-7.985 6.917-6.106 6.399 3.115 16.334 9.43 30.39 13.098 5.392 1.407 5.995-3.877 5.224-6.991-1.864-7.522-11.009-10.862-24.519-19.229-4.82-2.984-.927-9.736 5.168-8.351l20.234 2.415c3.359.763 4.555-6.114.882-7.875-14.198-6.804-28.897-10.098-53.864-7.799-11.617-29.265-29.811-61.617-15.674-81.681 12.639-17.938 31.216-20.74 39.147 43.489-5.002 3.107-11.215 5.031-11.332 13.024 7.201-2.845 11.207-1.399 14.791 0 17.912 6.998 35.462 21.826 52.982 37.309 3.739 3.303 8.413-1.718 6.991-6.034-2.138-6.494-8.053-10.659-14.791-20.016-3.239-4.495 5.03-7.045 10.886-6.876 13.849.396 22.886 8.268 35.177 11.218 4.483 1.076 9.741-1.964 6.917-6.917-3.472-6.085-13.015-9.124-19.18-13.413-4.357-3.029-3.025-7.132 2.697-6.602 3.905.361 8.478 2.271 13.908 1.767 9.946-.925 7.717-7.169-.883-9.566-19.036-5.304-39.891-6.311-61.665-5.225-43.837-8.358-31.554-84.887 0-90.363 29.571-5.132 62.966-13.339 99.928-32.156 32.668-5.429 64.835-12.446 92.939-33.85 48.106-14.469 111.903 16.113 204.241 149.695 3.926 5.681 15.819 9.94 9.524-6.351-15.893-41.125-68.176-93.328-92.13-132.085-24.581-39.774-14.34-61.243-39.957-91.247-21.326-24.978-47.502-25.803-77.339-17.365-23.461 6.634-39.234-7.117-52.98-31.273-29.365-51.617-81.947-74.215-137.452-73.811zM445.731 203.01c6.12 0 11.112 4.919 11.112 11.038 0 6.119-4.994 11.111-11.112 11.111s-11.038-4.994-11.038-11.111a11.01 11.01 0 0 1 11.038-11.038z"/></symbol><symbol id="nav" viewBox="0 0 449.98 600"><path class="cls-1" d="M400 0C276.24 0 175 101.26 175 225a223.12 223.12 0 0 0 42.78 131.21c.39.67.57 1.42 1 2.1l150 225a37.51 37.51 0 0 0 62.4 0l150-225c.43-.68.62-1.42 1-2.1A223.23 223.23 0 0 0 625 225C625 101.26 523.74 0 400 0zm121.44 312.26l-2.22 3.06-1.91 3.29c-.35.62-.73 1.26-1.06 1.89L400 494.88l-116-174-1.36-2.31-1.89-3.29-2.24-3.06A148.24 148.24 0 0 1 250 225c0-82.72 67.3-150 150-150s150 67.28 150 150a148.09 148.09 0 0 1-28.56 87.26z" transform="translate(-175)"/><path class="cls-1" d="M400 150a75 75 0 1 0 75 75 75 75 0 0 0-75-75z" transform="translate(-175)"/></symbol><symbol id="remove" viewBox="0 0 600.14 600.1"><path class="cls-1" d="M593.25-.1l100 100L193.17 600 93.1 500z" transform="translate(-93.1 .1)"/><path class="cls-1" d="M193.17-.1L693.24 500l-100 100L93.1 99.92z" transform="translate(-93.1 .1)"/></symbol><symbol id="twitter-icon" viewBox="0 0 728.9 600.27"><path d="M728.9 71.1a296.5 296.5 0 0 1-85.91 23.89 151.69 151.69 0 0 0 65.77-83.81 295.6 295.6 0 0 1-95 36.67A148.32 148.32 0 0 0 504.64 0c-82.59 0-149.53 67.91-149.53 151.6a154.92 154.92 0 0 0 3.86 34.55c-124.26-6.3-234.45-66.63-308.18-158.31a153 153 0 0 0 46.27 202.28 148.75 148.75 0 0 1-67.73-19V213c0 73.46 51.5 134.63 119.93 148.65a148.37 148.37 0 0 1-67.49 2.58c19 60.17 74.23 104 139.68 105.18a297.75 297.75 0 0 1-185.73 64.97A307.16 307.16 0 0 1 0 532.29a419.6 419.6 0 0 0 229.25 68c275.09 0 425.48-230.9 425.48-431.14 0-6.55-.18-13.06-.44-19.56a305.31 305.31 0 0 0 74.61-78.42z" fill="#a9abb0" fill-rule="evenodd"/></symbol><symbol id="wishlist" viewBox="0 0 686.24 600.16"><path d="M343.13 600.16A83.93 83.93 0 0 1 282 573.78l-239.65-251a44.42 44.42 0 0 1-7.73-11.12C1.78 262.97-8.13 204.74 6.74 146.73c18.13-70.48 75-126.23 144.94-142a190.33 190.33 0 0 1 41.38-4.76c71.92 0 120.22 42.76 150.23 84.49C373.51 42.76 421.76-.03 493.2-.03a186.44 186.44 0 0 1 44 5.44C606.36 22.19 662.32 78.17 679.79 148c14.44 57.61 4.34 115.53-28.38 163.87a43.33 43.33 0 0 1-7.52 10.85l-239.68 251a83.87 83.87 0 0 1-61.08 26.44zm-234.87-334.4l234.87 246 234.85-246c.14-.22.3-.42.46-.64 20.24-27.66 26.76-61.38 18.34-95a109.08 109.08 0 0 0-79.27-78.63 104.89 104.89 0 0 0-24.34-3c-74.51-.04-109.08 101.48-109.42 102.48-5.93 17.9-22.28 30-40.62 30h-.28a43 43 0 0 1-40.5-30.4c-.26-.85-34.09-102.13-109.29-102.13a104.22 104.22 0 0 0-23 2.69c-38.29 8.62-70.58 40-80.37 78.21-8.7 33.88-2.25 67.89 18.15 95.73.12.24.3.48.42.69z" fill="#454553"/></symbol><symbol id="youtube-icon" viewBox="0 0 852.57 600.97"><path d="M426.49 0h-.39S247.16 0 127.86 8.65c-16.66 2-53 2.15-85.43 36.2-25.58 25.93-33.86 84.79-33.86 84.79S0 198.8 0 267.94v64.83c0 69.14 8.57 138.29 8.57 138.29s8.3 58.87 33.88 84.82c32.43 34 75 32.95 94 36.52 68.2 6.55 289.88 8.57 289.88 8.57s179.13-.26 298.4-8.91c16.68-2 53-2.16 85.44-36.17 25.58-26 33.9-84.82 33.9-84.82s8.5-69.16 8.5-138.3v-64.83c0-69.14-8.53-138.29-8.53-138.29s-8.32-58.87-33.9-84.79c-32.39-34-68.75-34.21-85.44-36.2C605.44 0 426.49 0 426.49 0" fill="#a9abb0"/><path d="M338.27 411.32l230.3-119.61-230.32-120.46z" fill="#fff"/></symbol></svg>