<svg id="Слой_1" data-name="Слой 1" xmlns="http://www.w3.org/2000/svg" viewBox="0 0 711 601.07"><defs><style>.cls-1{fill:#3e3e40;}</style></defs><title>arr</title><path class="cls-1" d="M756,300.43v.16h0a48.56,48.56,0,0,1-3.82,18.92,49.94,49.94,0,0,1-11,16.35L487.2,586.29a51.19,51.19,0,0,1-71.8,0,49.52,49.52,0,0,1,0-70.81L582.63,350.54H95.81C67.75,350.54,45,328.11,45,300.43s22.75-50.08,50.81-50.08H582.63L415.4,85.41a49.52,49.52,0,0,1,0-70.81,51.25,51.25,0,0,1,71.8,0L741.15,265.05a49.85,49.85,0,0,1,11,16.31A48.94,48.94,0,0,1,756,300.31h0Z" transform="translate(-45 0.08)"/></svg>