<svg id="Слой_1" data-name="Слой 1" xmlns="http://www.w3.org/2000/svg" viewBox="0 0 525 600"><defs><style>.cls-1{fill:#41414e;}</style></defs><title>cart</title><path class="cls-1" d="M588,150H550.5C550.5,64.5,486,0,400.49,0s-150,64.5-150,150H213a75,75,0,0,0-75,75V525a75,75,0,0,0,75,75H588a75,75,0,0,0,75-75V225A75,75,0,0,0,588,150ZM400.49,75c44.18,0,75,30.86,75,75h-150C325.49,105.86,356.33,75,400.49,75ZM588,525H213V225h37.5v75a37.5,37.5,0,1,0,75,0V225h150v75a37.5,37.5,0,1,0,75,0V225H588Z" transform="translate(-138 0)"/></svg>