<svg id="Слой_3" data-name="Слой 3" xmlns="http://www.w3.org/2000/svg" viewBox="0 0 600.33 600.35"><defs><style>.cls-1{fill:#a9abb0;fill-rule:evenodd;}</style></defs><title>instagram-icon</title><path class="cls-1" d="M559.89,103.57a36,36,0,1,0,36,36,36,36,0,0,0-36-36M698,176.08c-1.46-32-6.55-53.76-13.94-72.84a147.18,147.18,0,0,0-34.63-53.18,147.22,147.22,0,0,0-53.19-34.63C577.19,8,555.36,3,523.39,1.49S481.15-.35,399.66-.35,307.92,0,275.91,1.49,222.13,8,203,15.43a147.27,147.27,0,0,0-53.18,34.63,147.42,147.42,0,0,0-34.62,53.18c-7.4,19.07-12.48,40.88-13.94,72.84s-1.83,42.23-1.83,123.75.39,91.75,1.83,123.77,6.55,53.77,13.94,72.85A153.56,153.56,0,0,0,203,584.25c19.08,7.43,40.92,12.49,72.86,13.95s42.23,1.8,123.75,1.8,91.72-.35,123.73-1.8,53.8-6.51,72.86-13.95a153.65,153.65,0,0,0,87.82-87.81c7.4-19.07,12.48-40.91,13.94-72.85s1.79-42.23,1.79-123.77-.35-91.74-1.79-123.75m-54,245c-1.34,29.25-6.22,45.15-10.35,55.75a99.22,99.22,0,0,1-57,56.92c-10.57,4.13-26.48,9-55.73,10.37-31.67,1.44-41.16,1.74-121.29,1.74s-89.63-.29-121.31-1.74c-29.25-1.35-45.14-6.24-55.71-10.37a99.25,99.25,0,0,1-57-56.92c-4.15-10.6-9-26.5-10.36-55.75-1.44-31.65-1.73-41.16-1.73-121.3s.29-89.63,1.73-121.27c1.36-29.26,6.22-45.18,10.36-55.77A92.81,92.81,0,0,1,188.13,88.3a93.08,93.08,0,0,1,34.51-22.46c10.57-4.09,26.46-9,55.71-10.34,31.69-1.45,41.16-1.77,121.31-1.77s89.63.32,121.29,1.77c29.25,1.33,45.16,6.25,55.73,10.34A93.09,93.09,0,0,1,611.19,88.3a93.12,93.12,0,0,1,22.46,34.49c4.13,10.59,9,26.51,10.35,55.77,1.44,31.64,1.73,41.13,1.73,121.27s-.28,89.65-1.73,121.3M399.66,145.71A154.14,154.14,0,1,0,553.8,299.83,154.15,154.15,0,0,0,399.66,145.71m0,254.18A100.06,100.06,0,1,1,499.71,299.83,100.08,100.08,0,0,1,399.66,399.9" transform="translate(-99.47 0.35)"/></svg>