<svg id="Слой_1" data-name="Слой 1" xmlns="http://www.w3.org/2000/svg" viewBox="0 0 449.98 600"><defs><style>.cls-1{fill:#454553;}</style></defs><title>nav</title><path class="cls-1" d="M400,0C276.24,0,175,101.26,175,225a223.12,223.12,0,0,0,42.78,131.21c.39.67.57,1.42,1,2.1l150,225a37.51,37.51,0,0,0,62.4,0l150-225c.43-.68.62-1.42,1-2.1A223.23,223.23,0,0,0,625,225C625,101.26,523.74,0,400,0ZM521.44,312.26l-2.22,3.06-1.91,3.29c-.35.62-.73,1.26-1.06,1.89L400,494.88l-116-174-1.36-2.31-1.89-3.29-2.24-3.06A148.24,148.24,0,0,1,250,225c0-82.72,67.3-150,150-150s150,67.28,150,150A148.09,148.09,0,0,1,521.44,312.26Z" transform="translate(-175)"/><path class="cls-1" d="M400,150a75,75,0,1,0,75,75A75,75,0,0,0,400,150Z" transform="translate(-175)"/></svg>