<svg id="Слой_2" data-name="Слой 2" xmlns="http://www.w3.org/2000/svg" viewBox="0 0 728.9 600.27"><defs><style>.cls-1{fill:#a9abb0;fill-rule:evenodd;}</style></defs><title>twitter-icon</title><path class="cls-1" d="M764,70.72a296.5,296.5,0,0,1-85.91,23.89A151.69,151.69,0,0,0,743.86,10.8a295.6,295.6,0,0,1-95,36.67A148.32,148.32,0,0,0,539.74-.38c-82.59,0-149.53,67.91-149.53,151.6a154.92,154.92,0,0,0,3.86,34.55c-124.26-6.3-234.45-66.63-308.18-158.31a153,153,0,0,0,46.27,202.28,148.75,148.75,0,0,1-67.73-19v1.88c0,73.46,51.5,134.63,119.93,148.65a148.37,148.37,0,0,1-67.49,2.58c19,60.17,74.23,104,139.68,105.18A297.75,297.75,0,0,1,70.82,534a307.16,307.16,0,0,1-35.72-2.09,419.6,419.6,0,0,0,229.25,68c275.09,0,425.48-230.9,425.48-431.14,0-6.55-.18-13.06-.44-19.56A305.31,305.31,0,0,0,764,70.79Z" transform="translate(-35.1 0.38)"/></svg>