<svg id="Слой_1" data-name="Слой 1" xmlns="http://www.w3.org/2000/svg" viewBox="0 0 686.24 600.16"><defs><style>.cls-1{fill:#454553;}</style></defs><title>wishlist</title><path class="cls-1" d="M399.62,600.19a83.93,83.93,0,0,1-61.13-26.38l-239.65-251a44.42,44.42,0,0,1-7.73-11.12C58.27,263,48.36,204.77,63.23,146.76c18.13-70.48,75-126.23,144.94-142A190.33,190.33,0,0,1,249.55,0c71.92,0,120.22,42.76,150.23,84.49C430,42.79,478.25,0,549.69,0a186.44,186.44,0,0,1,44,5.44c69.16,16.78,125.12,72.76,142.59,142.59,14.44,57.61,4.34,115.53-28.38,163.87a43.33,43.33,0,0,1-7.52,10.85l-239.68,251A83.87,83.87,0,0,1,399.62,600.19ZM164.75,265.79l234.87,246,234.85-246c.14-.22.3-.42.46-.64,20.24-27.66,26.76-61.38,18.34-95A109.08,109.08,0,0,0,574,91.52a104.89,104.89,0,0,0-24.34-3C475.15,88.48,440.58,190,440.24,191c-5.93,17.9-22.28,30-40.62,30h-.28a43,43,0,0,1-40.5-30.4c-.26-.85-34.09-102.13-109.29-102.13a104.22,104.22,0,0,0-23,2.69c-38.29,8.62-70.58,40-80.37,78.21-8.7,33.88-2.25,67.89,18.15,95.73C164.45,265.34,164.63,265.58,164.75,265.79Z" transform="translate(-56.49 -0.03)"/></svg>