<svg id="Слой_1" data-name="Слой 1" xmlns="http://www.w3.org/2000/svg" viewBox="0 0 852.57 600.97"><defs><style>.cls-1{fill:#a9abb0;}.cls-2{fill:#fff;}</style></defs><title>youtube-icon</title><path class="cls-1" d="M430.92,0h-.39S251.59,0,132.29,8.65c-16.66,2-53,2.15-85.43,36.2C21.28,70.78,13,129.64,13,129.64S4.43,198.8,4.43,267.94v64.83C4.43,401.91,13,471.06,13,471.06s8.3,58.87,33.88,84.82c32.43,34,75,32.95,94,36.52,68.2,6.55,289.88,8.57,289.88,8.57h0s179.13-.26,298.4-8.91c16.68-2,53-2.16,85.44-36.17,25.58-26,33.9-84.82,33.9-84.82S857,401.91,857,332.77V267.94c0-69.14-8.53-138.29-8.53-138.29s-8.32-58.87-33.9-84.79c-32.39-34-68.75-34.21-85.44-36.2C609.87,0,430.92,0,430.92,0" transform="translate(-4.43 0)"/><path class="cls-2" d="M342.7,411.32,573,291.71,342.68,171.25Z" transform="translate(-4.43 0)"/></svg>