<svg data-name="Y STORE" xmlns="http://www.w3.org/2000/svg" viewBox="0 0 93.33 13.4"><path d="M7.79 8.26v5h-3v-5L0 .15h2.68a1 1 0 0 1 .63.18 1.37 1.37 0 0 1 .38.47l1.85 3.82.41.85q.19.39.33.77a7.15 7.15 0 0 1 .32-.77l.4-.84L8.85.8A1.13 1.13 0 0 1 9 .57a1.3 1.3 0 0 1 .22-.21A1 1 0 0 1 9.5.21a1 1 0 0 1 .34-.06h2.7zm23.63-5.45a1.14 1.14 0 0 1-.28.32.63.63 0 0 1-.38.11.93.93 0 0 1-.45-.13l-.54-.29a4.5 4.5 0 0 0-.64-.29 2.76 2.76 0 0 0-.88-.13 1.9 1.9 0 0 0-1.27.36 1.24 1.24 0 0 0-.42 1 .91.91 0 0 0 .25.66 2.19 2.19 0 0 0 .66.45 7.09 7.09 0 0 0 .94.35l1.08.35a9.66 9.66 0 0 1 1.08.45 3.58 3.58 0 0 1 .94.67 3.11 3.11 0 0 1 .66 1 3.5 3.5 0 0 1 .25 1.4 4.56 4.56 0 0 1-.31 1.7 4 4 0 0 1-.98 1.35 4.25 4.25 0 0 1-1.48.93 5.53 5.53 0 0 1-2 .34 6.39 6.39 0 0 1-1.23-.15 7.36 7.36 0 0 1-1.23-.36 7.08 7.08 0 0 1-1.12-.54 4.74 4.74 0 0 1-.91-.7l.9-1.42a.72.72 0 0 1 .28-.26.79.79 0 0 1 .39-.1 1 1 0 0 1 .54.17l.62.38a4.92 4.92 0 0 0 .8.38 3 3 0 0 0 1.06.17 2 2 0 0 0 1.29-.37 1.39 1.39 0 0 0 .46-1.16 1.1 1.1 0 0 0-.25-.75 2 2 0 0 0-.66-.44 6.08 6.08 0 0 0-.93-.33l-1.07-.32a7.88 7.88 0 0 1-1.07-.43 3.38 3.38 0 0 1-.93-.67 3.15 3.15 0 0 1-.66-1 4.15 4.15 0 0 1-.25-1.54 3.66 3.66 0 0 1 .3-1.44 3.7 3.7 0 0 1 .87-1.25A4.29 4.29 0 0 1 26.26.4a5.22 5.22 0 0 1 1.87-.4 7.19 7.19 0 0 1 1.17.09 6.17 6.17 0 0 1 1.08.28 6 6 0 0 1 1 .44 4.4 4.4 0 0 1 .8.58zM46.99.15v2.41H43.3v10.7h-3V2.56h-3.73V.15zM64.26 6.7a7 7 0 0 1-.49 2.65 6.25 6.25 0 0 1-3.53 3.55 7.83 7.83 0 0 1-5.58 0 6.25 6.25 0 0 1-3.53-3.56 7 7 0 0 1-.49-2.65 7 7 0 0 1 .49-2.64 6.27 6.27 0 0 1 1.39-2.12A6.42 6.42 0 0 1 54.68.52 7.34 7.34 0 0 1 57.45 0a7.24 7.24 0 0 1 2.79.52 6.41 6.41 0 0 1 2.15 1.42 6.32 6.32 0 0 1 1.38 2.12 7 7 0 0 1 .49 2.64zm-3.13 0a5.67 5.67 0 0 0-.25-1.75 3.71 3.71 0 0 0-.75-1.32 3.13 3.13 0 0 0-1.16-.83 4 4 0 0 0-1.56-.29 4 4 0 0 0-1.57.29 3.12 3.12 0 0 0-1.16.83 3.7 3.7 0 0 0-.72 1.32 5.67 5.67 0 0 0-.25 1.75 5.7 5.7 0 0 0 .25 1.76 3.69 3.69 0 0 0 .72 1.32 3.08 3.08 0 0 0 1.16.82 4.1 4.1 0 0 0 1.57.28 4 4 0 0 0 1.56-.28 3.09 3.09 0 0 0 1.16-.82 3.7 3.7 0 0 0 .72-1.32 5.7 5.7 0 0 0 .28-1.76zm11.23 1.71v4.85h-3V.15h4.27a8.75 8.75 0 0 1 2.43.29 4.55 4.55 0 0 1 1.58.82 3.09 3.09 0 0 1 .92 1.23 4.1 4.1 0 0 1 .29 1.55 4.15 4.15 0 0 1-.17 1.22 3.64 3.64 0 0 1-.55 1 3.94 3.94 0 0 1-.83.86 4.42 4.42 0 0 1-1.13.62 2.9 2.9 0 0 1 .57.38 2.24 2.24 0 0 1 .46.55l2.84 4.59h-2.75a1.17 1.17 0 0 1-1.1-.58l-2.18-3.8a.92.92 0 0 0-.34-.36 1.13 1.13 0 0 0-.54-.11zm0-2.1h1.22a3.13 3.13 0 0 0 1.06-.16 1.9 1.9 0 0 0 .71-.44 1.66 1.66 0 0 0 .41-.65 2.51 2.51 0 0 0 .12-.8 1.69 1.69 0 0 0-.56-1.35 2.62 2.62 0 0 0-1.74-.49h-1.22zM93.33.15v2.34h-5.39v3.06h4.12V7.8h-4.12v3.12h5.39v2.34h-8.45V.15z" fill="#a9abb0"/></svg>